<svg xmlns="http://www.w3.org/2000/svg" style="display:none">
  <symbol id="project-diagram" viewBox="0 0 24 24">
    <path d="M3 12a9 9 0 1 1 18 0v1.5a2.5 2.5 0 0 1-5 0V12a4 4 0 1 0-8 0v1.5a2.5 2.5 0 0 1-5 0V12Z"/>
  </symbol>
  <symbol id="play" viewBox="0 0 24 24">
    <path d="M8 5v14l11-7z"/>
  </symbol>
  <symbol id="copy" viewBox="0 0 24 24">
    <path d="M16 1H4a2 2 0 0 0-2 2v12h2V3h12V1zm3 4H8a2 2 0 0 0-2 2v14h13a2 2 0 0 0 2-2V7a2 2 0 0 0-2-2zm0 16H8V7h11v14z"/>
  </symbol>
  <symbol id="search" viewBox="0 0 24 24">
    <path d="M15.5 14h-.79l-.28-.27a6.5 6.5 0 1 0-.71.71l.27.28v.79l5 5 1.5-1.5-5-5zm-6 0A4.5 4.5 0 1 1 14 9.5 4.5 4.5 0 0 1 9.5 14z"/>
  </symbol>
  <symbol id="link" viewBox="0 0 24 24">
    <path d="M3.9 12a5 5 0 0 1 5-5h3v2h-3a3 3 0 0 0 0 6h3v2h-3a5 5 0 0 1-5-5zm7.2 1h2v-2h-2v2zm4-6h3a5 5 0 0 1 0 10h-3v-2h3a3 3 0 0 0 0-6h-3V7z"/>
  </symbol>
  <symbol id="chart-line" viewBox="0 0 24 24">
    <path d="M3 3h2v14h14v2H3V3zm16 4-4.5 6-3-3L6 15l-1.5-1.5L11.5 7l3 3L18 6z"/>
  </symbol>
  <symbol id="map" viewBox="0 0 24 24">
    <path d="M15 4 9 6 3 4v16l6 2 6-2 6 2V6l-6-2zm0 2v12l-6 2V8l6-2z"/>
  </symbol>
  <symbol id="id-card" viewBox="0 0 24 24">
    <path d="M3 4h18a2 2 0 0 1 2 2v12a2 2 0 0 1-2 2H3a2 2 0 0 1-2-2V6a2 2 0 0 1 2-2zm0 2v12h18V6H3zm3 3h4v4H6V9zm7 1h5v2h-5v-2zm0 3h5v2h-5v-2z"/>
  </symbol>
  <symbol id="sync" viewBox="0 0 24 24">
    <path d="M12 4V1L8 5l4 4V6a6 6 0 1 1-6 6H4a8 8 0 1 0 8-8z"/>
  </symbol>
  <symbol id="plus" viewBox="0 0 24 24">
    <path d="M11 5h2v6h6v2h-6v6h-2v-6H5v-2h6z"/>
  </symbol>
  <symbol id="download" viewBox="0 0 24 24">
    <path d="M5 20h14v-2H5v2zm7-18v10l4-4 1.4 1.4L12 16l-5.4-5.6L8 8l4 4V2h2z"/>
  </symbol>
  <symbol id="wrench" viewBox="0 0 24 24">
    <path d="M22 12.7 13.7 4.4a5 5 0 0 0-6.7 6.7l8.3 8.3a4 4 0 1 0 6.7-6.7zM4 20l4-4"/>
  </symbol>
  <symbol id="arrow-left" viewBox="0 0 24 24">
    <path d="M14 7l-5 5 5 5V7z"/>
  </symbol>
  <symbol id="check-circle" viewBox="0 0 24 24">
    <path d="M12 2a10 10 0 1 0 0 20 10 10 0 0 0 0-20zm-1 14-4-4 1.4-1.4L11 13.2l4.6-4.6L17 10l-6 6z"/>
  </symbol>
  <symbol id="exclamation-circle" viewBox="0 0 24 24">
    <path d="M12 2a10 10 0 1 0 0 20 10 10 0 0 0 0-20zm1 14h-2v-2h2v2zm0-4h-2V6h2v6z"/>
  </symbol>
</svg>

